<svg xmlns="http://www.w3.org/2000/svg" version="1.1" xmlns:xlink="http://www.w3.org/1999/xlink" width="1000" height="1000"><style>
    #light-icon {
      display: inline;
    }
    #dark-icon {
      display: none;
    }

    @media (prefers-color-scheme: dark) {
      #light-icon {
        display: none;
      }
      #dark-icon {
        display: inline;
      }
    }
  </style><g id="light-icon"><svg xmlns="http://www.w3.org/2000/svg" version="1.1" xmlns:xlink="http://www.w3.org/1999/xlink" width="1000" height="1000"><g clip-path="url(#SvgjsClipPath1001)"><rect width="1000" height="1000" fill="#80cbd0"></rect><g transform="matrix(1.3671875,0,0,1.3671875,150,150)"><svg xmlns="http://www.w3.org/2000/svg" id="Layer_1" data-name="Layer 1" viewBox="0 0 512 512" width="512" height="512"><defs>
    <style>
      .cls-1 {
        fill: #ec6353;
      }

      .cls-2 {
        fill: #30348f;
      }

      .cls-3 {
        fill: #fedd50;
      }
    </style>
  <clipPath id="SvgjsClipPath1001"><rect width="1000" height="1000" x="0" y="0" rx="350" ry="350"></rect></clipPath></defs><path class="cls-2" d="M394.907,11.582H137.046c-26.166,0-48.272,22.106-48.272,48.272v54.994c0,26.166,22.106,48.272,48.272,48.272h83.553l-127.618,266.467c-2.368,4.943-3.597,10.354-3.597,15.836v6.721c0,26.617,21.93,48.272,48.884,48.272h60.493c25.917,0,46.01-13.319,58.126-38.561L439.589,79.954c2.363-4.94,3.59-10.346,3.59-15.822v-4.277c0-26.166-22.106-48.272-48.272-48.272ZM427.903,64.132c0,3.194-.716,6.348-2.094,9.23l-182.702,381.903c-9.654,20.112-24.155,29.877-44.345,29.877h-60.493c-18.846,0-33.607-14.493-33.607-32.996v-6.721c0-3.197.717-6.354,2.098-9.237L244.852,147.845h-107.806c-17.886,0-32.996-15.11-32.996-32.996v-54.994c0-17.886,15.11-32.996,32.996-32.996h257.861c17.886,0,32.996,15.11,32.996,32.996v4.277Z"></path><path class="cls-1" d="M394.907,26.858H137.046c-17.886,0-32.996,15.11-32.996,32.996v54.994c0,17.886,15.11,32.996,32.996,32.996h107.806L106.759,436.186c-1.381,2.883-2.098,6.04-2.098,9.237v6.721c0,18.503,14.762,32.996,33.607,32.996h60.493c20.19,0,34.691-9.765,44.345-29.877L425.808,73.362c1.378-2.882,2.094-6.035,2.094-9.23v-4.277c0-17.886-15.11-32.996-32.996-32.996ZM418.737,64.132c0,1.825-.409,3.627-1.197,5.274l-182.702,381.903c-10.613,22.112-25.672,24.667-36.077,24.667h-60.493c-13.706,0-24.442-10.468-24.442-23.831v-6.721c0-1.827.409-3.63,1.199-5.279l144.379-301.466h-122.359c-12.918,0-23.831-10.913-23.831-23.831v-54.994c0-12.917,10.913-23.831,23.831-23.831h257.861c12.918,0,23.831,10.913,23.831,23.831v4.277Z"></path><path class="cls-2" d="M394.907,36.024H137.046c-12.918,0-23.831,10.913-23.831,23.831v54.994c0,12.917,10.913,23.831,23.831,23.831h122.359L115.026,440.145c-.79,1.648-1.199,3.451-1.199,5.279v6.721c0,13.363,10.736,23.831,24.442,23.831h60.493c10.404,0,25.463-2.555,36.077-24.667L417.54,69.406c.788-1.646,1.197-3.448,1.197-5.274v-4.277c0-12.917-10.913-23.831-23.831-23.831ZM406.516,64.132l-182.702,381.903c-7.333,15.276-15.887,17.72-25.053,17.72h-60.493c-6.721,0-12.221-4.888-12.221-11.61v-6.721L278.808,126.459h-141.762c-6.11,0-11.61-5.499-11.61-11.61v-54.994c0-6.11,5.499-11.61,11.61-11.61h257.861c6.11,0,11.61,5.499,11.61,11.61v4.277Z"></path><path class="cls-3" d="M394.907,48.245H137.046c-6.11,0-11.61,5.499-11.61,11.61v54.994c0,6.11,5.499,11.61,11.61,11.61h141.762L126.047,445.424v6.721c0,6.721,5.499,11.61,12.221,11.61h60.493c9.166,0,17.72-2.444,25.053-17.72L406.516,64.132v-4.277c0-6.11-5.499-11.61-11.61-11.61Z"></path></svg></g></g></svg></g><g id="dark-icon"><svg xmlns="http://www.w3.org/2000/svg" version="1.1" xmlns:xlink="http://www.w3.org/1999/xlink" width="1000" height="1000"><g clip-path="url(#SvgjsClipPath1002)"><rect width="1000" height="1000" fill="#295a5c"></rect><g transform="matrix(1.3671875,0,0,1.3671875,150,150)"><svg xmlns="http://www.w3.org/2000/svg" id="Layer_1" data-name="Layer 1" viewBox="0 0 512 512" width="512" height="512"><defs>
    <style>
      .cls-1 {
        fill: #ec6353;
      }

      .cls-2 {
        fill: #30348f;
      }

      .cls-3 {
        fill: #fedd50;
      }
    </style>
  <clipPath id="SvgjsClipPath1002"><rect width="1000" height="1000" x="0" y="0" rx="350" ry="350"></rect></clipPath></defs><path class="cls-2" d="M394.907,11.582H137.046c-26.166,0-48.272,22.106-48.272,48.272v54.994c0,26.166,22.106,48.272,48.272,48.272h83.553l-127.618,266.467c-2.368,4.943-3.597,10.354-3.597,15.836v6.721c0,26.617,21.93,48.272,48.884,48.272h60.493c25.917,0,46.01-13.319,58.126-38.561L439.589,79.954c2.363-4.94,3.59-10.346,3.59-15.822v-4.277c0-26.166-22.106-48.272-48.272-48.272ZM427.903,64.132c0,3.194-.716,6.348-2.094,9.23l-182.702,381.903c-9.654,20.112-24.155,29.877-44.345,29.877h-60.493c-18.846,0-33.607-14.493-33.607-32.996v-6.721c0-3.197.717-6.354,2.098-9.237L244.852,147.845h-107.806c-17.886,0-32.996-15.11-32.996-32.996v-54.994c0-17.886,15.11-32.996,32.996-32.996h257.861c17.886,0,32.996,15.11,32.996,32.996v4.277Z"></path><path class="cls-1" d="M394.907,26.858H137.046c-17.886,0-32.996,15.11-32.996,32.996v54.994c0,17.886,15.11,32.996,32.996,32.996h107.806L106.759,436.186c-1.381,2.883-2.098,6.04-2.098,9.237v6.721c0,18.503,14.762,32.996,33.607,32.996h60.493c20.19,0,34.691-9.765,44.345-29.877L425.808,73.362c1.378-2.882,2.094-6.035,2.094-9.23v-4.277c0-17.886-15.11-32.996-32.996-32.996ZM418.737,64.132c0,1.825-.409,3.627-1.197,5.274l-182.702,381.903c-10.613,22.112-25.672,24.667-36.077,24.667h-60.493c-13.706,0-24.442-10.468-24.442-23.831v-6.721c0-1.827.409-3.63,1.199-5.279l144.379-301.466h-122.359c-12.918,0-23.831-10.913-23.831-23.831v-54.994c0-12.917,10.913-23.831,23.831-23.831h257.861c12.918,0,23.831,10.913,23.831,23.831v4.277Z"></path><path class="cls-2" d="M394.907,36.024H137.046c-12.918,0-23.831,10.913-23.831,23.831v54.994c0,12.917,10.913,23.831,23.831,23.831h122.359L115.026,440.145c-.79,1.648-1.199,3.451-1.199,5.279v6.721c0,13.363,10.736,23.831,24.442,23.831h60.493c10.404,0,25.463-2.555,36.077-24.667L417.54,69.406c.788-1.646,1.197-3.448,1.197-5.274v-4.277c0-12.917-10.913-23.831-23.831-23.831ZM406.516,64.132l-182.702,381.903c-7.333,15.276-15.887,17.72-25.053,17.72h-60.493c-6.721,0-12.221-4.888-12.221-11.61v-6.721L278.808,126.459h-141.762c-6.11,0-11.61-5.499-11.61-11.61v-54.994c0-6.11,5.499-11.61,11.61-11.61h257.861c6.11,0,11.61,5.499,11.61,11.61v4.277Z"></path><path class="cls-3" d="M394.907,48.245H137.046c-6.11,0-11.61,5.499-11.61,11.61v54.994c0,6.11,5.499,11.61,11.61,11.61h141.762L126.047,445.424v6.721c0,6.721,5.499,11.61,12.221,11.61h60.493c9.166,0,17.72-2.444,25.053-17.72L406.516,64.132v-4.277c0-6.11-5.499-11.61-11.61-11.61Z"></path></svg></g></g></svg></g></svg>