<?xml version="1.0" encoding="UTF-8"?>
<svg id="Layer_1" data-name="Layer 1" xmlns="http://www.w3.org/2000/svg" viewBox="0 0 885.074 274.801">
  <defs>
    <style>
      .cls-1 {
        fill: none;
      }

      .cls-2 {
        fill: #ec6353;
      }

      .cls-3 {
        fill: #32338d;
      }

      .cls-4 {
        fill: #30348f;
      }

      .cls-5 {
        fill: #fedd50;
      }
    </style>
  </defs>
  <path class="cls-1" d="M344.457,116.533c-12.365,0-22.811,10.62-22.811,23.19,0,12.364,10.446,22.811,22.811,22.811,12.467,0,23-10.446,23-22.811,0-12.57-10.533-23.19-23-23.19Z"/>
  <path class="cls-3" d="M100.809,128.238c-2.366-2.098-4.842-3.99-7.346-5.697,4.071-1.658,7.727-4.599,10.091-8.236l9.643-14.558.52-.843c5.539-9.698,1.648-20.842-5.574-25.821-10.691-7.782-27.834-16.95-49.251-16.95C20.229,56.133,0,82.7,0,108.943c0,18.611,9.687,34.637,27.685,46.422-1.049.048-2.097.175-3.133.384-5.268,1.065-9.688,4.121-12.447,8.605l-9.192,16.213c-3.31,5.806-5.4,14.561,3.381,23.344,4.462,4.463,21.499,19.023,53.357,19.023,37.458,0,59.841-27.624,59.841-54.33,0-15.573-6.46-29.531-18.682-40.366ZM59.65,214.435c-28.591,0-43.468-12.655-47.347-16.534-1.963-1.963-6.044-6.045-2.004-13.129l9.044-15.963c1.511-2.456,3.958-4.135,6.892-4.728,2.981-.604,6.219-.036,8.557,1.482.228.139.478.304.823.532,11.144,7.38,18.498,8.929,22.705,8.929,3.049,0,6.61-1.283,6.61-4.9,0-1.733,0-7.007-15.469-13.148-26.412-10.441-40.962-27.501-40.962-48.032,0-11.644,4.597-22.519,12.945-30.623,9.224-8.954,22.172-13.688,37.445-13.688,15.005,0,30.745,5.465,44.346,15.394,3.605,2.416,6.566,8.591,3.099,14.661l-.225.366-9.665,14.591c-1.874,2.902-5.25,5.149-8.623,5.733-2.501.434-4.905-.051-6.833-1.364-.363-.222-.786-.504-1.379-.899-3.508-2.337-14.185-9.451-22.24-9.451-3.339,0-5.47,1.89-5.47,3.19,0,1.549,0,5.661,16.651,12.406,10.467,4.159,42.44,16.866,42.44,49.345,0,22.528-19.204,45.83-51.341,45.83Z"/>
  <path class="cls-3" d="M246.268,158.468c-6.545-7.205-18.221-7.901-25.787-1.42-3.87,3.333-10.022,5.486-15.672,5.486-12.578,0-22.43-10.354-22.43-23.57,0-13.537,9.769-24.141,22.24-24.141,5.687,0,11.322,2.089,15.499,5.737,3.419,3.197,7.843,4.95,12.527,4.95,4.895,0,9.505-1.914,12.981-5.391l14.958-15.529c3.56-3.634,5.513-8.572,5.366-13.583-.15-5.115-2.366-9.846-6.243-13.334-16.14-14.695-33.948-21.541-56.037-21.541-22.386,0-43.393,8.68-59.153,24.438-15.759,15.76-24.438,36.768-24.438,59.152s8.694,43.338,24.479,59.003c15.731,15.611,36.724,24.208,59.112,24.208,21.762,0,41.339-7.838,56.617-22.666l.16-.157c7.11-7.109,7.276-18.981.429-26.1l-14.607-15.544ZM257.424,187.265c-.131,2.612-1.192,5.04-2.988,6.837-13.729,13.325-31.26,20.333-50.767,20.333-20.129,0-38.996-7.722-53.125-21.741-14.166-14.057-21.967-32.868-21.967-52.97,0-41.405,33.686-75.091,75.091-75.091,19.865,0,35.868,6.154,50.36,19.368,2.104,1.868,3.342,4.466,3.424,7.257.081,2.761-.971,5.389-2.965,7.409l-14.873,15.443c-1.871,1.87-4.347,2.9-6.971,2.9-2.545,0-4.95-.969-6.8-2.733-5.72-5.057-13.448-7.954-21.226-7.954-17.237,0-30.74,14.338-30.74,32.641,0,17.983,13.586,32.07,30.93,32.07,7.684,0,15.814-2.892,21.219-7.546,4.057-3.477,10.535-3.11,13.987.737l14.703,15.646c1.861,1.914,2.847,4.601,2.707,7.393Z"/>
  <path class="cls-3" d="M344.457,56.133c-22.384,0-43.338,8.693-59.003,24.479-15.611,15.731-24.208,36.725-24.208,59.111s8.612,43.325,24.249,58.963c15.637,15.637,36.577,24.248,58.963,24.248s43.352-8.604,59.036-24.229c15.711-15.65,24.364-36.598,24.364-58.982s-8.638-43.386-24.323-59.132c-15.712-15.772-36.693-24.459-59.077-24.459ZM397.495,192.685c-14.08,14.025-32.916,21.75-53.038,21.75s-38.921-7.728-52.952-21.759c-14.032-14.031-21.759-32.837-21.759-52.952s7.721-38.995,21.742-53.124c14.057-14.165,32.869-21.967,52.97-21.967s38.95,7.798,53.055,21.958c14.087,14.142,21.845,33.011,21.845,53.133s-7.764,38.917-21.863,52.961Z"/>
  <path class="cls-3" d="M344.457,108.033c-16.972,0-31.311,14.513-31.311,31.69,0,17.265,14.046,31.311,31.311,31.311,17.369,0,31.5-14.046,31.5-31.311,0-17.475-14.131-31.69-31.5-31.69ZM344.457,162.534c-12.365,0-22.811-10.446-22.811-22.811,0-12.57,10.446-23.19,22.811-23.19,12.467,0,23,10.62,23,23.19,0,12.364-10.533,22.811-23,22.811Z"/>
  <path class="cls-3" d="M514.464,114.644c0-4.304-3.637-7.94-7.94-7.94h-21.62v16.641h21.62c4.081,0,7.94-4.229,7.94-8.7Z"/>
  <path class="cls-3" d="M565.415,114.074c0-30.901-25.311-56.041-56.421-56.041h-56.811c-10.262,0-18.61,8.349-18.61,18.61v125.781c0,10.262,8.349,18.61,18.61,18.61h22.61c10.262,0,18.61-8.349,18.61-18.61v-11.244l9.964,19.853c3.037,6.076,9.497,10.002,16.456,10.002h25.271c6.731,0,12.758-3.362,16.122-8.994,3.356-5.617,3.478-12.755.311-18.638l-19.042-35.304c14.438-10.626,22.93-26.479,22.93-44.025ZM531.261,155.196l22.784,42.242c1.753,3.257,1.704,7.181-.126,10.244-1.815,3.038-5.114,4.853-8.825,4.853h-25.271c-3.71,0-7.268-2.131-8.854-5.303l-23.467-46.758h-2.6v41.95c0,5.48-4.63,10.11-10.11,10.11h-22.61c-5.575,0-10.11-4.535-10.11-10.11v-125.781c0-5.575,4.535-10.11,10.11-10.11h56.811c26.424,0,47.921,21.327,47.921,47.541,0,17.07-9.664,32.307-25.653,41.122Z"/>
  <path class="cls-3" d="M667.644,58.033h-78.661c-10.262,0-18.61,8.349-18.61,18.61v125.781c0,10.262,8.349,18.61,18.61,18.61h78.661c10.262,0,18.61-8.349,18.61-18.61v-20.71c0-9.435-7.057-17.252-16.169-18.451,4.184-3.415,6.858-8.61,6.858-14.42v-20.71c0-4.891-1.897-9.348-4.993-12.673,8.192-1.948,14.304-9.327,14.304-18.107v-20.71c0-10.262-8.349-18.61-18.61-18.61ZM677.754,97.354c0,5.575-4.535,10.11-10.11,10.11h-46.131v10.56h36.82c5.48,0,10.11,4.63,10.11,10.11v20.71c0,5.575-4.535,10.11-10.11,10.11h-36.82v12.65h46.131c5.575,0,10.11,4.535,10.11,10.11v20.71c0,5.575-4.535,10.11-10.11,10.11h-78.661c-5.575,0-10.11-4.535-10.11-10.11v-125.781c0-5.575,4.535-10.11,10.11-10.11h78.661c5.575,0,10.11,4.535,10.11,10.11v20.71Z"/>
  <path class="cls-3" d="M863.234,0h-151.921c-11.839,0-21.84,10.001-21.84,21.84v32.4c0,11.839,10.001,21.84,21.84,21.84h59.705l-81.185,169.515v7.366c0,12.247,9.752,21.84,22.2,21.84h35.64c12.912,0,22.163-6.198,28.291-18.967l109.109-228.07v-5.924c0-11.839-10.001-21.84-21.84-21.84ZM876.574,25.835l-.637,1.33-107.641,225c-6.013,12.53-14.18,14.136-20.623,14.136h-35.64c-7.683,0-13.7-5.859-13.7-13.34v-5.437l86.18-179.944h-73.2c-7.23,0-13.34-6.109-13.34-13.34V21.84c0-7.23,6.109-13.34,13.34-13.34h151.921c7.231,0,13.34,6.109,13.34,13.34v3.995Z"/>
  <path class="cls-2" d="M68.551,119.26c-16.651-6.745-16.651-10.857-16.651-12.406,0-1.301,2.131-3.19,5.47-3.19,8.055,0,18.731,7.114,22.24,9.451.593.396,1.016.678,1.379.899,1.928,1.313,4.332,1.798,6.833,1.364,3.372-.584,6.749-2.831,8.623-5.733l9.665-14.591.225-.366c3.468-6.07.506-12.245-3.099-14.661-13.601-9.929-29.341-15.394-44.346-15.394-15.273,0-28.221,4.733-37.445,13.688-8.348,8.104-12.945,18.979-12.945,30.623,0,20.531,14.55,37.591,40.962,48.032,15.469,6.142,15.469,11.415,15.469,13.148,0,3.617-3.561,4.9-6.61,4.9-4.207,0-11.561-1.549-22.705-8.929-.345-.229-.595-.394-.823-.532-2.338-1.519-5.576-2.086-8.557-1.482-2.934.593-5.381,2.271-6.892,4.728l-9.044,15.963c-4.041,7.084.041,11.166,2.004,13.129,3.878,3.879,18.756,16.534,47.347,16.534,32.137,0,51.341-23.302,51.341-45.83,0-32.479-31.973-45.186-42.44-49.345ZM59.65,211.935c-27.63,0-41.872-12.095-45.579-15.802-2.376-2.377-4.458-5.117-1.597-10.127l9-15.887c1.144-1.859,3.011-3.134,5.258-3.588,2.34-.474,4.949-.021,6.731,1.149.192.115.417.265.773.5,11.663,7.723,19.535,9.344,24.085,9.344,5.364,0,9.11-3.043,9.11-7.4,0-2.152,0-8.704-17.046-15.472-32.55-12.869-39.384-31.96-39.384-45.709,0-10.962,4.328-21.2,12.187-28.829,8.748-8.492,21.095-12.981,35.704-12.981,19.492,0,35.183,9.3,42.886,14.923,4.22,2.646,4.112,8.375,2.388,11.393l-.138.225-9.69,14.63c-1.443,2.268-4.247,4.146-6.939,4.611-1.871.323-3.65-.029-5.046-.998-.332-.201-.748-.479-1.354-.882-3.664-2.441-14.814-9.871-23.626-9.871-4.768,0-7.97,2.942-7.97,5.69,0,3.633,2.164,8.223,18.212,14.724,10.092,4.011,40.878,16.245,40.878,47.027,0,21.299-18.269,43.33-48.841,43.33Z"/>
  <path class="cls-2" d="M240.014,164.226c-3.452-3.848-9.93-4.214-13.987-.737-5.404,4.654-13.535,7.546-21.219,7.546-17.344,0-30.93-14.087-30.93-32.07,0-18.303,13.503-32.641,30.74-32.641,7.778,0,15.506,2.897,21.226,7.954,1.85,1.765,4.255,2.733,6.8,2.733,2.625,0,5.1-1.03,6.971-2.9l14.873-15.443c1.994-2.021,3.046-4.648,2.965-7.409-.082-2.791-1.32-5.389-3.424-7.257-14.492-13.214-30.495-19.368-50.36-19.368-41.405,0-75.091,33.686-75.091,75.091,0,20.102,7.801,38.913,21.967,52.97,14.128,14.02,32.995,21.741,53.125,21.741,19.507,0,37.038-7.008,50.767-20.333,1.796-1.797,2.857-4.225,2.988-6.837.14-2.792-.846-5.479-2.707-7.393l-14.703-15.646ZM252.668,192.333c-13.227,12.838-30.155,19.602-48.999,19.602-19.465,0-37.707-7.464-51.364-21.016-13.688-13.584-21.228-31.766-21.228-51.195,0-40.026,32.564-72.591,72.591-72.591,19.468,0,34.479,5.771,48.675,18.715,1.607,1.428,2.548,3.388,2.609,5.483.061,2.09-.75,4.086-2.286,5.621l-14.767,15.336c-1.452,1.453-3.3,2.223-5.256,2.223-1.911,0-3.718-.734-5.104-2.071-6.175-5.477-14.523-8.616-22.921-8.616-18.639,0-33.24,15.436-33.24,35.141,0,19.385,14.684,34.57,33.43,34.57,8.256,0,17.012-3.123,22.85-8.151,1.395-1.195,3.319-1.83,5.254-1.799,2.079.054,3.988.902,5.258,2.332l14.741,15.686c2.767,2.832,2.661,7.827-.244,10.731Z"/>
  <path class="cls-2" d="M344.457,64.633c-20.101,0-38.913,7.802-52.97,21.967-14.021,14.129-21.742,32.995-21.742,53.124s7.728,38.921,21.759,52.952c14.031,14.031,32.837,21.759,52.952,21.759s38.958-7.725,53.038-21.75c14.099-14.044,21.863-32.853,21.863-52.961s-7.758-38.991-21.845-53.133c-14.105-14.16-32.947-21.958-53.055-21.958ZM395.73,190.913c-13.608,13.556-31.817,21.021-51.273,21.021s-37.625-7.468-51.185-21.026c-13.56-13.56-21.027-31.737-21.027-51.185s7.464-37.706,21.016-51.363c13.584-13.688,31.766-21.228,51.195-21.228s37.651,7.537,51.284,21.223c13.617,13.669,21.116,31.912,21.116,51.368s-7.503,37.618-21.127,51.189Z"/>
  <path class="cls-2" d="M344.457,105.533c-18.644,0-33.811,15.338-33.811,34.19,0,18.644,15.167,33.811,33.811,33.811,18.748,0,34-15.167,34-33.811,0-18.853-15.252-34.19-34-34.19ZM344.457,171.034c-17.265,0-31.311-14.046-31.311-31.311,0-17.178,14.339-31.69,31.311-31.69,17.369,0,31.5,14.216,31.5,31.69,0,17.265-14.131,31.311-31.5,31.311Z"/>
  <path class="cls-2" d="M516.964,114.644c0-5.659-4.781-10.44-10.44-10.44h-24.12v21.641h24.12c5.464,0,10.44-5.339,10.44-11.2ZM484.904,106.703h21.62c4.304,0,7.94,3.637,7.94,7.94,0,4.472-3.859,8.7-7.94,8.7h-21.62v-16.641Z"/>
  <path class="cls-2" d="M508.994,66.533h-56.811c-5.575,0-10.11,4.535-10.11,10.11v125.781c0,5.575,4.535,10.11,10.11,10.11h22.61c5.48,0,10.11-4.63,10.11-10.11v-41.95h2.6l23.467,46.758c1.586,3.172,5.144,5.303,8.854,5.303h25.271c3.711,0,7.01-1.814,8.825-4.853,1.83-3.063,1.879-6.987.126-10.244l-22.784-42.242c15.989-8.815,25.653-24.052,25.653-41.122,0-26.214-21.497-47.541-47.921-47.541ZM527.858,154.153l23.987,44.473c1.338,2.483,1.31,5.462-.072,7.774-1.359,2.276-3.856,3.635-6.679,3.635h-25.271c-3.217,0-5.642-1.97-6.618-3.921l-24.159-48.14h-6.643v44.45c0,4.125-3.485,7.61-7.61,7.61h-22.61c-4.196,0-7.61-3.414-7.61-7.61v-125.781c0-4.196,3.414-7.61,7.61-7.61h56.811c25.045,0,45.421,20.205,45.421,45.041,0,16.896-10.064,31.915-26.557,40.079Z"/>
  <path class="cls-2" d="M667.644,66.533h-78.661c-5.575,0-10.11,4.535-10.11,10.11v125.781c0,5.575,4.535,10.11,10.11,10.11h78.661c5.575,0,10.11-4.535,10.11-10.11v-20.71c0-5.575-4.535-10.11-10.11-10.11h-46.131v-12.65h36.82c5.575,0,10.11-4.535,10.11-10.11v-20.71c0-5.48-4.63-10.11-10.11-10.11h-36.82v-10.56h46.131c5.575,0,10.11-4.535,10.11-10.11v-20.71c0-5.575-4.535-10.11-10.11-10.11ZM675.254,97.354c0,4.196-3.414,7.61-7.61,7.61h-48.631v15.56h39.32c4.125,0,7.61,3.485,7.61,7.61v20.71c0,4.196-3.414,7.61-7.61,7.61h-39.32v17.65h48.631c4.196,0,7.61,3.414,7.61,7.61v20.71c0,4.196-3.414,7.61-7.61,7.61h-78.661c-4.196,0-7.61-3.414-7.61-7.61v-125.781c0-4.196,3.414-7.61,7.61-7.61h78.661c4.196,0,7.61,3.414,7.61,7.61v20.71Z"/>
  <path class="cls-4" d="M67.613,121.577c-16.049-6.501-18.212-11.091-18.212-14.724,0-2.748,3.203-5.69,7.97-5.69,8.812,0,19.962,7.43,23.626,9.871.606.403,1.022.681,1.354.882,1.396.969,3.176,1.321,5.046.998,2.692-.466,5.496-2.344,6.939-4.611l9.69-14.63.138-.225c1.724-3.018,1.832-8.746-2.388-11.393-7.703-5.623-23.394-14.923-42.886-14.923-14.609,0-26.956,4.489-35.704,12.981-7.858,7.629-12.187,17.867-12.187,28.829,0,13.749,6.834,32.84,39.384,45.709,17.046,6.768,17.046,13.319,17.046,15.472,0,4.357-3.746,7.4-9.11,7.4-4.55,0-12.423-1.621-24.085-9.344-.355-.235-.581-.385-.773-.5-1.782-1.171-4.391-1.623-6.731-1.149-2.247.454-4.114,1.729-5.258,3.588l-9,15.887c-2.86,5.01-.779,7.75,1.597,10.127,3.707,3.707,17.949,15.802,45.579,15.802,30.572,0,48.841-22.031,48.841-43.33,0-30.782-30.787-43.017-40.878-47.027ZM59.65,207.935c-24.7,0-38.38-10.26-42.75-14.63-1.9-1.9-2.47-2.66-.95-5.32l8.93-15.77c1.52-2.471,5.13-2.091,6.46-1.141.76.38,14.44,10.45,26.98,10.45,7.6,0,13.11-4.75,13.11-11.4,0-7.979-6.65-14.06-19.57-19.189-16.34-6.46-36.86-19.19-36.86-41.991,0-18.81,14.63-37.811,43.891-37.811,19.76,0,34.96,10.07,40.661,14.251,2.28,1.33,1.9,4.75,1.14,6.08l-9.69,14.63c-1.33,2.09-4.75,3.8-6.46,2.47-1.71-.95-15.58-11.4-27.17-11.4-6.84,0-11.97,4.561-11.97,9.69,0,7.03,5.7,12.351,20.71,18.431,14.82,5.89,38.38,17.479,38.38,43.32,0,19.57-16.91,39.33-44.841,39.33Z"/>
  <path class="cls-4" d="M238.171,165.916c-1.271-1.43-3.18-2.278-5.258-2.332-1.935-.031-3.859.604-5.254,1.799-5.838,5.028-14.594,8.151-22.85,8.151-18.746,0-33.43-15.186-33.43-34.57,0-19.705,14.601-35.141,33.24-35.141,8.397,0,16.746,3.14,22.921,8.616,1.386,1.337,3.193,2.071,5.104,2.071,1.957,0,3.805-.77,5.256-2.223l14.767-15.336c1.536-1.535,2.347-3.531,2.286-5.621-.062-2.096-1.002-4.056-2.609-5.483-14.196-12.943-29.208-18.715-48.675-18.715-40.027,0-72.591,32.564-72.591,72.591,0,19.43,7.539,37.611,21.228,51.195,13.657,13.552,31.898,21.016,51.364,21.016,18.844,0,35.772-6.764,48.999-19.602,2.905-2.904,3.011-7.899.244-10.731l-14.741-15.686ZM249.839,189.505c-12.92,12.54-29.26,18.43-46.17,18.43-38.001,0-68.591-30.21-68.591-68.211s30.59-68.591,68.591-68.591c19,0,33.06,5.891,45.98,17.671,1.71,1.52,1.71,3.8.19,5.319l-14.82,15.391c-1.33,1.33-3.42,1.33-4.75,0-7.03-6.271-16.34-9.69-25.65-9.69-21.47,0-37.24,17.86-37.24,39.141,0,21.091,15.96,38.57,37.43,38.57,8.93,0,18.62-3.229,25.46-9.12,1.33-1.14,3.8-1.14,4.94.19l14.82,15.771c1.33,1.33,1.14,3.8-.19,5.13Z"/>
  <path class="cls-4" d="M344.457,67.133c-19.43,0-37.611,7.539-51.195,21.228-13.552,13.657-21.016,31.898-21.016,51.363s7.467,37.625,21.027,51.185c13.56,13.559,31.737,21.026,51.185,21.026s37.665-7.466,51.273-21.021c13.625-13.571,21.127-31.751,21.127-51.189s-7.499-37.699-21.116-51.368c-13.633-13.686-31.846-21.223-51.284-21.223ZM344.457,207.935c-38.001,0-68.211-30.21-68.211-68.211s30.21-68.591,68.211-68.591,68.4,30.591,68.4,68.591-30.4,68.211-68.4,68.211Z"/>
  <path class="cls-4" d="M344.457,101.533c-20.71,0-37.811,17.291-37.811,38.19,0,20.711,17.101,37.811,37.811,37.811,20.899,0,38-17.1,38-37.811,0-20.899-17.101-38.19-38-38.19ZM344.457,173.534c-18.644,0-33.811-15.167-33.811-33.811,0-18.853,15.167-34.19,33.811-34.19,18.748,0,34,15.338,34,34.19,0,18.644-15.252,33.811-34,33.811Z"/>
  <path class="cls-4" d="M508.994,69.033h-56.811c-4.196,0-7.61,3.414-7.61,7.61v125.781c0,4.196,3.414,7.61,7.61,7.61h22.61c4.125,0,7.61-3.485,7.61-7.61v-44.45h6.643l24.159,48.14c.977,1.951,3.401,3.921,6.618,3.921h25.271c2.822,0,5.319-1.358,6.679-3.635,1.382-2.312,1.41-5.291.072-7.774l-23.987-44.473c16.492-8.164,26.557-23.183,26.557-40.079,0-24.836-20.376-45.041-45.421-45.041ZM522.294,152.265l26.03,48.26c1.33,2.471,0,5.511-3.23,5.511h-25.271c-1.52,0-2.66-.95-3.04-1.71l-25.27-50.351h-13.11v48.45c0,1.9-1.71,3.61-3.61,3.61h-22.61c-2.09,0-3.61-1.71-3.61-3.61v-125.781c0-1.9,1.521-3.61,3.61-3.61h56.811c22.801,0,41.421,18.431,41.421,41.041,0,17.479-11.59,31.54-28.12,38.19Z"/>
  <path class="cls-4" d="M520.964,114.644c0-7.979-6.65-14.44-14.44-14.44h-28.12v29.641h28.12c7.79,0,14.44-7.22,14.44-15.2ZM482.404,104.203h24.12c5.659,0,10.44,4.781,10.44,10.44,0,5.861-4.977,11.2-10.44,11.2h-24.12v-21.641Z"/>
  <path class="cls-4" d="M667.644,69.033h-78.661c-4.196,0-7.61,3.414-7.61,7.61v125.781c0,4.196,3.414,7.61,7.61,7.61h78.661c4.196,0,7.61-3.414,7.61-7.61v-20.71c0-4.196-3.414-7.61-7.61-7.61h-48.631v-17.65h39.32c4.196,0,7.61-3.414,7.61-7.61v-20.71c0-4.125-3.485-7.61-7.61-7.61h-39.32v-15.56h48.631c4.196,0,7.61-3.414,7.61-7.61v-20.71c0-4.196-3.414-7.61-7.61-7.61ZM671.254,97.354c0,1.9-1.521,3.61-3.61,3.61h-52.631v23.56h43.32c1.9,0,3.61,1.711,3.61,3.61v20.71c0,2.091-1.71,3.61-3.61,3.61h-43.32v25.65h52.631c2.09,0,3.61,1.71,3.61,3.61v20.71c0,1.9-1.521,3.61-3.61,3.61h-78.661c-2.09,0-3.61-1.71-3.61-3.61v-125.781c0-1.9,1.521-3.61,3.61-3.61h78.661c2.09,0,3.61,1.71,3.61,3.61v20.71Z"/>
  <path class="cls-2" d="M863.234,8.5h-151.921c-7.23,0-13.34,6.109-13.34,13.34v32.4c0,7.23,6.109,13.34,13.34,13.34h73.2l-86.18,179.944v5.437c0,7.48,6.018,13.34,13.7,13.34h35.64c6.443,0,14.61-1.605,20.623-14.136l107.641-225,.637-1.33v-3.995c0-7.23-6.108-13.34-13.34-13.34ZM874.074,25.268l-.392.819-107.641,225c-5.377,11.204-12.303,12.714-18.368,12.714h-35.64c-6.28,0-11.2-4.762-11.2-10.84v-4.868l87.649-183.013h-77.17c-5.774,0-10.84-5.065-10.84-10.84V21.84c0-5.774,5.065-10.84,10.84-10.84h151.921c5.774,0,10.84,5.065,10.84,10.84v3.428Z"/>
  <path class="cls-4" d="M863.234,11h-151.921c-5.774,0-10.84,5.065-10.84,10.84v32.4c0,5.774,5.065,10.84,10.84,10.84h77.17l-87.649,183.013v4.868c0,6.078,4.92,10.84,11.2,10.84h35.64c6.065,0,12.991-1.51,18.368-12.714l107.641-225,.392-.819v-3.428c0-5.774-5.065-10.84-10.84-10.84ZM870.074,24.36l-107.641,225c-4.319,9-9.359,10.44-14.76,10.44h-35.64c-3.96,0-7.2-2.88-7.2-6.84v-3.96l90-187.921h-83.521c-3.6,0-6.84-3.24-6.84-6.84V21.84c0-3.6,3.24-6.84,6.84-6.84h151.921c3.6,0,6.84,3.24,6.84,6.84v2.521Z"/>
  <path class="cls-5" d="M66.111,125.284c-15.01-6.08-20.71-11.4-20.71-18.431,0-5.13,5.13-9.69,11.97-9.69,11.59,0,25.46,10.45,27.17,11.4,1.71,1.33,5.13-.38,6.46-2.47l9.69-14.63c.76-1.33,1.14-4.75-1.14-6.08-5.7-4.181-20.9-14.251-40.661-14.251-29.26,0-43.891,19.001-43.891,37.811,0,22.801,20.521,35.531,36.86,41.991,12.92,5.13,19.57,11.21,19.57,19.189,0,6.65-5.51,11.4-13.11,11.4-12.541,0-26.221-10.07-26.98-10.45-1.33-.95-4.94-1.33-6.46,1.141l-8.93,15.77c-1.52,2.66-.95,3.42.95,5.32,4.37,4.37,18.05,14.63,42.75,14.63,27.931,0,44.841-19.76,44.841-39.33,0-25.841-23.561-37.431-38.38-43.32Z"/>
  <path class="cls-5" d="M235.209,168.604c-1.14-1.33-3.61-1.33-4.94-.19-6.84,5.891-16.53,9.12-25.46,9.12-21.47,0-37.43-17.479-37.43-38.57,0-21.28,15.77-39.141,37.24-39.141,9.31,0,18.62,3.42,25.65,9.69,1.33,1.33,3.42,1.33,4.75,0l14.82-15.391c1.52-1.52,1.52-3.8-.19-5.319-12.92-11.78-26.98-17.671-45.98-17.671-38.001,0-68.591,30.591-68.591,68.591s30.59,68.211,68.591,68.211c16.91,0,33.25-5.89,46.17-18.43,1.33-1.33,1.52-3.8.19-5.13l-14.82-15.771Z"/>
  <path class="cls-5" d="M344.457,71.133c-38.001,0-68.211,30.591-68.211,68.591s30.21,68.211,68.211,68.211,68.4-30.21,68.4-68.211-30.4-68.591-68.4-68.591ZM344.457,177.534c-20.71,0-37.811-17.1-37.811-37.811,0-20.899,17.101-38.19,37.811-38.19,20.899,0,38,17.291,38,38.19,0,20.711-17.101,37.811-38,37.811Z"/>
  <path class="cls-5" d="M508.994,73.033h-56.811c-2.09,0-3.61,1.71-3.61,3.61v125.781c0,1.9,1.521,3.61,3.61,3.61h22.61c1.9,0,3.61-1.71,3.61-3.61v-48.45h13.11l25.27,50.351c.38.76,1.521,1.71,3.04,1.71h25.271c3.23,0,4.561-3.04,3.23-5.511l-26.03-48.26c16.53-6.65,28.12-20.711,28.12-38.19,0-22.61-18.62-41.041-41.421-41.041ZM478.404,100.203h28.12c7.79,0,14.44,6.461,14.44,14.44s-6.65,15.2-14.44,15.2h-28.12v-29.641Z"/>
  <path class="cls-5" d="M667.644,73.033h-78.661c-2.09,0-3.61,1.71-3.61,3.61v125.781c0,1.9,1.521,3.61,3.61,3.61h78.661c2.09,0,3.61-1.71,3.61-3.61v-20.71c0-1.9-1.521-3.61-3.61-3.61h-52.631v-25.65h43.32c1.9,0,3.61-1.52,3.61-3.61v-20.71c0-1.899-1.71-3.61-3.61-3.61h-43.32v-23.56h52.631c2.09,0,3.61-1.71,3.61-3.61v-20.71c0-1.9-1.521-3.61-3.61-3.61Z"/>
  <path class="cls-5" d="M863.234,15h-151.921c-3.6,0-6.84,3.24-6.84,6.84v32.4c0,3.6,3.24,6.84,6.84,6.84h83.521l-90,187.921v3.96c0,3.96,3.24,6.84,7.2,6.84h35.64c5.4,0,10.44-1.44,14.76-10.44l107.641-225v-2.521c0-3.6-3.24-6.84-6.84-6.84Z"/>
</svg>