<?xml version="1.0" encoding="UTF-8"?>
<svg id="Layer_1" data-name="Layer 1" xmlns="http://www.w3.org/2000/svg" viewBox="0 0 885.074 274.801">
  <defs>
    <style>
      .cls-1 {
        fill: none;
      }

      .cls-2 {
        fill: #ec6353;
      }

      .cls-3 {
        fill: #30348f;
      }

      .cls-4 {
        fill: #fedd50;
      }
    </style>
  </defs>
  <path class="cls-1" d="M392.693,140.355c-6.998,0-12.911,6.058-12.911,13.229,0,6.998,5.912,12.91,12.911,12.91,7.084,0,13.069-5.912,13.069-12.91,0-7.171-5.985-13.229-13.069-13.229Z"/>
  <path class="cls-1" d="M93.438,86.797c2.872,2.184,8.48,5.55,19.314,9.942,3.879,1.542,8.324,3.394,13.064,5.619-.009-.006-.018-.012-.027-.018-.677-.421-1.407-.907-2.339-1.528-15.439-10.286-24.675-13.415-30.012-14.015Z"/>
  <path class="cls-3" d="M158.706,123.313c-8.735-7.743-18.486-13.724-27.567-18.352,3.613,1.2,7.56,1.482,11.582.786,7.73-1.339,15.166-6.273,19.463-12.899l15.805-23.862c.226-.342.442-.691.645-1.047,2.56-4.48,3.775-10.214,3.334-15.73-.637-7.958-4.59-14.789-10.908-18.938-16.805-12.212-43.665-26.559-77.092-26.559C34.522,6.712,3.419,47.254,3.419,87.303c0,37.141,25.631,67.73,72.146,86.119,14.121,5.607,19.643,10.692,20.217,13.622-.497.209-1.402.453-2.748.453-4.738,0-15.293-1.727-32.753-13.288-.544-.36-1.014-.672-1.486-.963-5.595-3.604-12.944-4.918-19.896-3.513-7.007,1.417-12.878,5.465-16.531,11.401-.119.193-.234.388-.346.585l-14.611,25.802c-1.378,2.412-5.446,9.601-3.203,18.575,1.591,6.365,5.623,10.397,7.789,12.563,6.904,6.903,33.307,29.428,83.213,29.428,57.653,0,92.104-42.242,92.104-83.081,0-24.108-9.626-44.865-28.611-61.695ZM95.213,260.31c-46.917,0-71.344-20.78-77.713-27.15-3.257-3.257-10.034-10.034-3.319-21.802l14.612-25.804c.065-.115.132-.229.202-.342,2.51-4.08,6.575-6.869,11.446-7.853,4.942-.998,10.31-.057,14.19,2.458.377.23.788.502,1.356.878,18.2,12.052,30.192,14.581,37.048,14.581,4.88,0,10.58-2.037,10.58-7.779,0-11.308-18.951-18.833-25.178-21.306-17.941-7.093-32.654-16.041-43.715-26.589-15.609-14.885-23.523-32.481-23.523-52.3,0-19.136,7.555-37.009,21.275-50.327,15.153-14.71,36.417-22.485,61.495-22.485,24.585,0,50.374,8.94,72.668,25.181,9.184,5.851,9.003,17.828,5.244,24.407-.119.208-.244.411-.376.61l-15.826,23.894c-3.104,4.808-8.697,8.53-14.285,9.498-4.156.721-8.157-.085-11.367-2.269-.597-.366-1.291-.829-2.263-1.476-23.169-15.436-33.04-15.436-36.284-15.436-5.637,0-8.713,3.289-8.713,4.979,0,2.49,0,9.102,27.09,20.079,11.916,4.738,29.389,12.498,43.689,25.175,17.247,15.29,25.992,34.088,25.992,55.874,0,37.015-31.542,75.302-84.325,75.302ZM125.816,102.358c-4.74-2.225-9.185-4.077-13.064-5.619-10.833-4.392-16.441-7.758-19.314-9.942,5.337.6,14.572,3.728,30.012,14.015.933.621,1.662,1.108,2.339,1.528.009.006.018.012.027.018Z"/>
  <path class="cls-3" d="M304.553,165.062c-7.663-8.378-21.248-9.201-30.047-1.664-2.116,1.823-5.852,3.095-9.083,3.095-8.18,0-12.593-6.979-12.593-13.545,0-6.798,4.358-14.022,12.434-14.022,3.205,0,6.492,1.2,8.841,3.22,3.985,3.687,9.124,5.707,14.567,5.707,5.729,0,11.122-2.238,15.185-6.302.083-.083.165-.167.246-.251l12.309-12.783c4.124-4.221,6.386-9.966,6.215-15.804-.173-5.874-2.804-11.516-7.227-15.507-14.676-13.361-30.862-19.584-50.93-19.584-20.338,0-39.426,7.888-53.749,22.211-14.323,14.323-22.211,33.411-22.211,53.749s7.906,39.395,22.262,53.64c14.297,14.188,33.368,22.001,53.698,22.001,19.522,0,37.836-7.34,51.566-20.666.067-.064.133-.13.198-.196,8.404-8.404,8.572-21.947.452-30.388l-12.134-12.912ZM314.824,193.563c-.177,3.536-1.629,6.84-4.089,9.299-.038.038-.077.077-.116.114-12.449,12.082-28.406,18.469-46.148,18.469-18.264,0-35.388-7.012-48.218-19.744-12.873-12.774-19.962-29.863-19.962-48.119s7.079-35.394,19.932-48.248c12.853-12.854,29.988-19.933,48.248-19.933,18.02,0,32.544,5.582,45.705,17.568,2.904,2.612,4.564,6.149,4.676,9.972.11,3.744-1.353,7.437-4.019,10.156l-12.333,12.806c-.047.049-.095.098-.144.146-5.232,5.234-13.68,5.338-19.043.316-3.787-3.319-8.897-5.22-14.049-5.22-11.335,0-20.213,9.576-20.213,21.801,0,11.958,8.948,21.324,20.372,21.324,5.088,0,10.646-1.954,14.159-4.979,5.659-4.849,14.387-4.33,19.267,1.058l12.214,12.997c2.584,2.681,3.952,6.389,3.761,10.215Z"/>
  <path class="cls-3" d="M392.693,132.576c-11.215,0-20.69,9.621-20.69,21.008,0,11.215,9.475,20.689,20.69,20.689,11.496,0,20.849-9.281,20.849-20.689s-9.548-21.008-20.849-21.008ZM392.693,166.494c-6.998,0-12.911-5.912-12.911-12.91,0-7.171,5.912-13.229,12.911-13.229,7.084,0,13.069,6.058,13.069,13.229,0,6.998-5.985,12.91-13.069,12.91Z"/>
  <path class="cls-3" d="M392.693,77.624c-20.345,0-39.395,7.906-53.64,22.262-14.188,14.297-22.001,33.368-22.001,53.698s7.832,39.369,22.052,53.589c14.221,14.221,33.252,22.052,53.59,22.052s39.385-7.822,53.643-22.026c14.288-14.233,22.157-33.274,22.157-53.615s-7.851-39.413-22.106-53.723c-14.284-14.339-33.353-22.236-53.695-22.236ZM440.847,201.687c-12.791,12.741-29.892,19.758-48.154,19.758s-35.338-7.022-48.089-19.773c-12.751-12.751-19.774-29.829-19.774-48.089s7.012-35.388,19.744-48.218c12.774-12.873,29.863-19.962,48.119-19.962s35.369,7.084,48.184,19.947c12.792,12.842,19.838,29.972,19.838,48.233s-7.056,35.341-19.868,48.104Z"/>
  <path class="cls-3" d="M537.637,132.635c0-.619-.654-1.17-1.17-1.17h-12.597v2.975h12.562c.408-.112,1.205-.993,1.205-1.805Z"/>
  <path class="cls-3" d="M591.796,132.159c0-29.196-23.895-52.949-53.265-52.949h-47.451c-11.957,0-21.685,9.728-21.685,21.685v105.057c0,11.957,9.728,21.685,21.685,21.685h18.885c8.039,0,15.071-4.397,18.816-10.913,3.725,6.66,10.998,10.913,18.796,10.913h21.106c7.805,0,14.81-3.927,18.739-10.505,3.905-6.539,4.057-14.823.391-21.629l-13.485-25.002c11.072-9.865,17.469-23.448,17.469-38.342ZM580.966,199.196c2.373,4.405,2.286,9.747-.223,13.948-2.511,4.204-7.019,6.715-12.06,6.715h-21.106c-5.2,0-10.02-2.925-12.282-7.452l-11.424-22.761v16.308c0,7.538-6.368,13.906-13.906,13.906h-18.885c-7.668,0-13.906-6.238-13.906-13.906v-105.057c0-7.668,6.238-13.906,13.906-13.906h47.451c25.081,0,45.486,20.263,45.486,45.169,0,14.575-7.3,27.711-19.642,36.277l16.591,30.76Z"/>
  <path class="cls-3" d="M703.833,188.655c0-7.6-3.93-14.3-9.864-18.173,1.339-2.815,2.088-5.963,2.088-9.281v-17.298c0-2.798-.533-5.475-1.502-7.932,5.606-3.924,9.278-10.429,9.278-17.776v-17.298c0-11.957-9.728-21.685-21.685-21.685h-65.7c-11.957,0-21.685,9.728-21.685,21.685v105.057c0,11.957,9.728,21.685,21.685,21.685h65.7c11.957,0,21.685-9.728,21.685-21.685v-17.298ZM696.053,205.953c0,7.668-6.238,13.906-13.906,13.906h-65.7c-7.668,0-13.906-6.238-13.906-13.906v-105.057c0-7.668,6.238-13.906,13.906-13.906h65.7c7.668,0,13.906,6.238,13.906,13.906v17.298c0,7.668-6.238,13.906-13.906,13.906h-.537c3.966,2.481,6.667,6.894,6.667,11.803v17.298c0,6.589-4.605,12.121-10.766,13.548h4.636c7.668,0,13.906,6.238,13.906,13.906v17.298Z"/>
  <path class="cls-3" d="M857.073,16.047h-131.311c-13.325,0-24.582,11.257-24.582,24.582v28.005c0,13.325,11.257,24.582,24.582,24.582h42.548l-64.987,135.693c-1.206,2.517-1.832,5.273-1.832,8.064v3.423c0,13.554,11.167,24.582,24.893,24.582h30.805c13.198,0,23.43-6.782,29.599-19.637l93.038-194.477c1.203-2.515,1.828-5.269,1.828-8.057v-2.178c0-13.325-11.257-24.582-24.582-24.582ZM873.875,42.807c0,1.627-.365,3.233-1.067,4.7l-93.038,194.477c-4.916,10.242-12.301,15.214-22.582,15.214h-30.805c-9.597,0-17.114-7.38-17.114-16.803v-3.423c0-1.628.365-3.236,1.068-4.704l70.322-146.833h-54.898c-9.108,0-16.803-7.695-16.803-16.803v-28.005c0-9.108,7.695-16.803,16.803-16.803h131.311c9.108,0,16.803,7.695,16.803,16.803v2.178Z"/>
  <path class="cls-2" d="M153.546,129.135c-14.3-12.677-31.774-20.438-43.689-25.175-27.09-10.977-27.09-17.589-27.09-20.079,0-1.69,3.075-4.979,8.713-4.979,3.244,0,13.116,0,36.284,15.436.971.647,1.665,1.109,2.263,1.476,3.21,2.184,7.211,2.989,11.367,2.269,5.587-.968,11.18-4.69,14.285-9.498l15.826-23.894c.132-.199.257-.403.376-.61,3.759-6.579,3.941-18.556-5.244-24.407-22.293-16.242-48.083-25.181-72.668-25.181-25.078,0-46.342,7.775-61.495,22.485-13.719,13.318-21.275,31.191-21.275,50.327,0,19.819,7.914,37.415,23.523,52.3,11.061,10.549,25.774,19.496,43.715,26.589,6.227,2.473,25.178,9.997,25.178,21.306,0,5.742-5.699,7.779-10.58,7.779-6.856,0-18.848-2.529-37.048-14.581-.568-.376-.979-.648-1.356-.878-3.88-2.515-9.248-3.456-14.19-2.458-4.871.985-8.936,3.773-11.446,7.853-.069.112-.137.227-.202.342l-14.612,25.804c-6.715,11.768.062,18.545,3.319,21.802,6.369,6.369,30.796,27.15,77.713,27.15,52.784,0,84.325-38.286,84.325-75.302,0-21.786-8.745-40.584-25.992-55.874ZM95.213,255.643c-45.123,0-68.364-19.734-74.412-25.782-3.802-3.803-7.132-8.184-2.567-16.185l14.621-25.821c.037-.066.076-.131.115-.195,1.825-2.966,4.807-4.999,8.397-5.724,3.754-.757,7.937-.036,10.786,1.84.31.186.677.428,1.258.813,19.168,12.693,32.128,15.357,39.625,15.357,8.977,0,15.247-5.118,15.247-12.447,0-12.976-16.05-20.85-28.123-25.644-17.386-6.874-31.592-15.497-42.216-25.629-14.649-13.97-22.076-30.429-22.076-48.922,0-17.863,7.053-34.546,19.858-46.978,14.264-13.847,34.405-21.167,58.244-21.167,23.653,0,48.52,8.657,70.051,24.383,3.241,2.032,5.205,5.447,5.542,9.66.243,3.037-.405,6.238-1.734,8.562-.068.119-.139.235-.215.349l-15.842,23.919c-2.389,3.715-6.871,6.707-11.173,7.452-2.983.517-5.812-.046-8.03-1.587-.539-.325-1.22-.779-2.216-1.443-6.021-4.012-24.344-16.219-38.872-16.219-8.004,0-13.38,4.988-13.38,9.646,0,6.058,3.568,13.696,30.03,24.415,16.479,6.549,66.742,26.525,66.742,76.713,0,34.72-29.796,70.634-79.658,70.634Z"/>
  <path class="cls-2" d="M298.849,170.352c-4.88-5.388-13.608-5.907-19.267-1.058-3.513,3.025-9.071,4.979-14.159,4.979-11.424,0-20.372-9.367-20.372-21.324,0-12.225,8.879-21.801,20.213-21.801,5.152,0,10.263,1.9,14.049,5.22,5.363,5.022,13.811,4.918,19.043-.316.048-.048.096-.097.144-.146l12.333-12.806c2.666-2.719,4.129-6.412,4.019-10.156-.112-3.822-1.772-7.36-4.676-9.972-13.162-11.986-27.686-17.568-45.705-17.568-18.26,0-35.395,7.079-48.248,19.933-12.854,12.854-19.932,29.988-19.932,48.248s7.089,35.344,19.962,48.119c12.83,12.732,29.955,19.744,48.218,19.744,17.742,0,33.7-6.387,46.148-18.469.039-.038.077-.076.116-.114,2.46-2.46,3.912-5.763,4.089-9.299.191-3.826-1.177-7.534-3.761-10.215l-12.214-12.997ZM307.435,199.562c-.022.022-.044.044-.066.065-11.56,11.22-26.394,17.151-42.897,17.151-17.024,0-32.981-6.531-44.931-18.389-11.983-11.891-18.582-27.804-18.582-44.806s6.593-32.975,18.565-44.948c11.972-11.972,27.935-18.565,44.948-18.565,16.792,0,30.321,5.2,42.575,16.363,1.951,1.751,3.066,4.109,3.141,6.646.074,2.523-.884,4.923-2.7,6.765l-12.348,12.823c-.027.028-.054.056-.082.084-1.713,1.713-3.98,2.656-6.384,2.656-2.326,0-4.525-.883-6.216-2.492-4.634-4.091-10.892-6.435-17.191-6.435-13.952,0-24.881,11.626-24.881,26.468,0,14.575,10.999,25.992,25.04,25.992,6.235,0,12.828-2.341,17.205-6.11,3.705-3.173,9.622-2.836,12.785.681l12.27,13.055c3.413,3.516,3.311,9.436-.248,12.995Z"/>
  <path class="cls-2" d="M392.693,127.908c-13.745,0-25.357,11.758-25.357,25.675,0,13.745,11.612,25.357,25.357,25.357,14.07,0,25.516-11.375,25.516-25.357,0-14.157-11.446-25.675-25.516-25.675ZM392.693,174.273c-11.215,0-20.69-9.475-20.69-20.689,0-11.387,9.475-21.008,20.69-21.008,11.301,0,20.849,9.621,20.849,21.008s-9.353,20.689-20.849,20.689Z"/>
  <path class="cls-2" d="M392.693,85.403c-18.256,0-35.345,7.089-48.119,19.962-12.732,12.831-19.744,29.955-19.744,48.218s7.022,35.338,19.774,48.089c12.751,12.751,29.829,19.773,48.089,19.773s35.363-7.017,48.154-19.758c12.812-12.763,19.868-29.846,19.868-48.104s-7.046-35.391-19.838-48.233c-12.814-12.863-29.926-19.947-48.184-19.947ZM437.553,198.381c-11.91,11.864-27.842,18.398-44.86,18.398s-32.919-6.537-44.789-18.406c-11.87-11.87-18.407-27.776-18.407-44.789s6.531-32.98,18.39-44.931c11.891-11.983,27.804-18.582,44.806-18.582s32.945,6.596,44.877,18.574c11.915,11.962,18.477,27.921,18.477,44.939s-6.568,32.916-18.494,44.797Z"/>
  <path class="cls-2" d="M584.017,132.159c0-24.906-20.405-45.169-45.486-45.169h-47.451c-7.668,0-13.906,6.238-13.906,13.906v105.057c0,7.668,6.238,13.906,13.906,13.906h18.885c7.538,0,13.906-6.368,13.906-13.906v-16.308l11.424,22.761c2.261,4.527,7.082,7.452,12.282,7.452h21.106c5.041,0,9.549-2.511,12.06-6.715,2.509-4.201,2.596-9.543.223-13.948l-16.591-30.76c12.342-8.566,19.642-21.701,19.642-36.277ZM558.198,166.816l18.66,34.596c1.596,2.963,1.549,6.541-.122,9.339-1.661,2.78-4.672,4.441-8.053,4.441h-21.106c-3.394,0-6.651-1.958-8.107-4.87l-19.379-38.612h-.887v34.244c0,5.008-4.23,9.238-9.238,9.238h-18.885c-5.094,0-9.238-4.144-9.238-9.238v-105.057c0-5.094,4.144-9.239,9.238-9.239h47.451c22.508,0,40.819,18.169,40.819,40.502,0,14.31-7.95,27.1-21.152,34.657Z"/>
  <path class="cls-2" d="M542.305,132.635c0-3.164-2.673-5.837-5.837-5.837h-17.264v12.31h17.264c3,0,5.837-3.146,5.837-6.472ZM523.871,134.44v-2.975h12.597c.516,0,1.17.551,1.17,1.17,0,.812-.797,1.693-1.205,1.805h-12.562Z"/>
  <path class="cls-2" d="M682.148,174.749h-4.636c6.161-1.427,10.766-6.96,10.766-13.548v-17.298c0-4.909-2.701-9.322-6.667-11.803h.537c7.668,0,13.906-6.238,13.906-13.906v-17.298c0-7.668-6.238-13.906-13.906-13.906h-65.7c-7.668,0-13.906,6.238-13.906,13.906v105.057c0,7.668,6.238,13.906,13.906,13.906h65.7c7.668,0,13.906-6.238,13.906-13.906v-17.298c0-7.668-6.238-13.906-13.906-13.906ZM691.386,205.953c0,5.094-4.144,9.238-9.238,9.238h-65.7c-5.094,0-9.238-4.144-9.238-9.238v-105.057c0-5.094,4.144-9.239,9.238-9.239h65.7c5.094,0,9.238,4.144,9.238,9.239v17.298c0,5.094-4.144,9.238-9.238,9.238h-37.736v7.232h29.96c5.008,0,9.238,4.23,9.238,9.238v17.298c0,5.094-4.144,9.238-9.238,9.238h-29.96v8.978h37.736c5.094,0,9.238,4.144,9.238,9.238v17.298Z"/>
  <path class="cls-2" d="M857.073,23.826h-131.311c-9.108,0-16.803,7.695-16.803,16.803v28.005c0,9.108,7.695,16.803,16.803,16.803h54.898l-70.322,146.833c-.703,1.468-1.068,3.076-1.068,4.704v3.423c0,9.422,7.517,16.803,17.114,16.803h30.805c10.281,0,17.666-4.973,22.582-15.214l93.038-194.477c.702-1.467,1.067-3.073,1.067-4.7v-2.178c0-9.108-7.695-16.803-16.803-16.803ZM869.208,42.807c0,.93-.208,1.847-.61,2.686l-93.038,194.477c-5.405,11.26-13.073,12.561-18.371,12.561h-30.805c-6.979,0-12.447-5.33-12.447-12.135v-3.423c0-.93.208-1.849.611-2.688l73.523-153.516h-62.309c-6.578,0-12.135-5.557-12.135-12.135v-28.005c0-6.578,5.557-12.135,12.135-12.135h131.311c6.578,0,12.135,5.557,12.135,12.135v2.178Z"/>
  <path class="cls-3" d="M108.129,108.295c-26.462-10.719-30.03-18.357-30.03-24.415,0-4.658,5.376-9.646,13.38-9.646,14.528,0,32.851,12.208,38.872,16.219.996.664,1.677,1.118,2.216,1.443,2.217,1.54,5.047,2.103,8.03,1.587,4.302-.745,8.784-3.736,11.173-7.452l15.842-23.919c.076-.114.147-.23.215-.349,1.329-2.325,1.976-5.526,1.734-8.562-.337-4.213-2.301-7.628-5.542-9.66-21.531-15.726-46.398-24.383-70.051-24.383-23.839,0-43.979,7.319-58.244,21.167-12.806,12.432-19.858,29.115-19.858,46.978,0,18.493,7.428,34.952,22.076,48.922,10.624,10.132,24.83,18.755,42.216,25.629,12.073,4.794,28.123,12.667,28.123,25.644,0,7.328-6.27,12.447-15.247,12.447-7.496,0-20.457-2.664-39.625-15.357-.581-.385-.948-.627-1.258-.813-2.849-1.876-7.032-2.597-10.786-1.84-3.589.726-6.571,2.759-8.397,5.724-.04.064-.078.129-.115.195l-14.621,25.821c-4.565,8.002-1.235,12.383,2.567,16.185,6.049,6.048,29.289,25.782,74.412,25.782,49.862,0,79.658-35.914,79.658-70.634,0-50.188-50.263-70.164-66.742-76.713ZM95.213,249.419c-40.451,0-62.855-16.803-70.012-23.96-3.112-3.112-4.045-4.356-1.556-8.713l14.625-25.827c2.489-4.045,8.401-3.423,10.58-1.867,1.245.622,23.648,17.114,44.185,17.114,12.447,0,21.47-7.779,21.47-18.67,0-13.069-10.891-23.026-32.05-31.428-26.76-10.58-60.366-31.428-60.366-68.767,0-30.805,23.96-61.922,71.879-61.922,32.361,0,57.254,16.492,66.589,23.337,3.734,2.178,3.112,7.779,1.867,9.957l-15.869,23.96c-2.178,3.423-7.779,6.223-10.58,4.045-2.8-1.556-25.515-18.67-44.496-18.67-11.202,0-19.603,7.468-19.603,15.869,0,11.513,9.335,20.226,33.917,30.183,24.271,9.646,62.855,28.627,62.855,70.945,0,32.05-27.694,64.411-73.435,64.411Z"/>
  <path class="cls-3" d="M295.413,173.511c-3.163-3.517-9.08-3.854-12.785-.681-4.377,3.769-10.969,6.11-17.205,6.11-14.041,0-25.04-11.417-25.04-25.992,0-14.842,10.929-26.468,24.881-26.468,6.299,0,12.558,2.344,17.191,6.435,1.692,1.609,3.89,2.492,6.216,2.492,2.404,0,4.671-.943,6.384-2.656.028-.028.055-.056.082-.084l12.348-12.823c1.816-1.843,2.774-4.242,2.7-6.765-.074-2.537-1.189-4.895-3.141-6.646-12.254-11.163-25.783-16.363-42.575-16.363-17.013,0-32.976,6.593-44.948,18.565-11.972,11.972-18.565,27.935-18.565,44.948s6.599,32.915,18.582,44.806c11.95,11.858,27.907,18.389,44.931,18.389,16.504,0,31.337-5.931,42.897-17.151.022-.021.044-.043.066-.065,3.559-3.559,3.661-9.48.248-12.995l-12.27-13.055ZM303.034,195.161c-10.792,10.474-24.439,15.393-38.563,15.393-31.74,0-57.29-25.232-57.29-56.971s25.55-57.29,57.29-57.29c15.869,0,27.613,4.92,38.404,14.759,1.428,1.27,1.428,3.174.159,4.444l-12.378,12.854c-1.111,1.111-2.856,1.111-3.967,0-5.872-5.237-13.648-8.094-21.424-8.094-17.933,0-31.104,14.918-31.104,32.692,0,17.615,13.33,32.215,31.263,32.215,7.459,0,15.552-2.698,21.265-7.617,1.111-.952,3.174-.952,4.126.159l12.378,13.172c1.111,1.111.952,3.174-.159,4.285Z"/>
  <path class="cls-3" d="M392.693,90.07c-17.002,0-32.915,6.599-44.806,18.582-11.859,11.951-18.39,27.907-18.39,44.931s6.537,32.919,18.407,44.789c11.869,11.869,27.776,18.406,44.789,18.406s32.95-6.534,44.86-18.398c11.926-11.881,18.494-27.79,18.494-44.797s-6.562-32.978-18.477-44.939c-11.932-11.977-27.869-18.574-44.877-18.574ZM392.693,210.555c-31.739,0-56.972-25.232-56.972-56.971s25.233-57.29,56.972-57.29,57.131,25.551,57.131,57.29-25.391,56.971-57.131,56.971Z"/>
  <path class="cls-3" d="M392.693,121.685c-17.298,0-31.581,14.442-31.581,31.899,0,17.298,14.283,31.58,31.581,31.58,17.457,0,31.739-14.283,31.739-31.58,0-17.457-14.283-31.899-31.739-31.899ZM392.693,178.94c-13.745,0-25.357-11.612-25.357-25.357,0-13.917,11.612-25.675,25.357-25.675,14.07,0,25.516,11.518,25.516,25.675,0,13.982-11.446,25.357-25.516,25.357Z"/>
  <path class="cls-3" d="M538.531,91.657h-47.451c-5.094,0-9.238,4.144-9.238,9.239v105.057c0,5.094,4.144,9.238,9.238,9.238h18.885c5.008,0,9.238-4.23,9.238-9.238v-34.244h.887l19.379,38.612c1.456,2.913,4.713,4.87,8.107,4.87h21.106c3.381,0,6.392-1.66,8.053-4.441,1.671-2.798,1.718-6.375.122-9.339l-18.66-34.596c13.201-7.557,21.152-20.347,21.152-34.657,0-22.333-18.311-40.502-40.819-40.502ZM549.639,164.057l21.741,40.309c1.111,2.063,0,4.602-2.698,4.602h-21.106c-1.27,0-2.222-.793-2.539-1.428l-21.107-42.054h-10.95v40.468c0,1.587-1.428,3.015-3.015,3.015h-18.885c-1.745,0-3.015-1.428-3.015-3.015v-105.057c0-1.587,1.27-3.015,3.015-3.015h47.451c19.043,0,34.596,15.394,34.596,34.279,0,14.6-9.681,26.343-23.487,31.898Z"/>
  <path class="cls-3" d="M548.528,132.635c0-6.665-5.554-12.061-12.061-12.061h-23.487v24.756h23.487c6.506,0,12.061-6.031,12.061-12.696ZM519.203,126.798h17.264c3.164,0,5.837,2.673,5.837,5.837,0,3.327-2.837,6.472-5.837,6.472h-17.264v-12.31Z"/>
  <path class="cls-3" d="M682.148,179.417h-37.736v-8.978h29.96c5.094,0,9.238-4.144,9.238-9.238v-17.298c0-5.008-4.23-9.238-9.238-9.238h-29.96v-7.232h37.736c5.094,0,9.238-4.144,9.238-9.238v-17.298c0-5.094-4.144-9.239-9.238-9.239h-65.7c-5.094,0-9.238,4.144-9.238,9.239v105.057c0,5.094,4.144,9.238,9.238,9.238h65.7c5.094,0,9.238-4.144,9.238-9.238v-17.298c0-5.094-4.144-9.238-9.238-9.238ZM685.163,205.953c0,1.587-1.27,3.015-3.015,3.015h-65.7c-1.745,0-3.015-1.428-3.015-3.015v-105.057c0-1.587,1.27-3.015,3.015-3.015h65.7c1.745,0,3.015,1.428,3.015,3.015v17.298c0,1.587-1.27,3.015-3.015,3.015h-43.959v19.679h36.183c1.587,0,3.015,1.428,3.015,3.015v17.298c0,1.745-1.428,3.015-3.015,3.015h-36.183v21.424h43.959c1.745,0,3.015,1.428,3.015,3.015v17.298Z"/>
  <path class="cls-3" d="M857.073,28.493h-131.311c-6.578,0-12.135,5.557-12.135,12.135v28.005c0,6.578,5.557,12.135,12.135,12.135h62.309l-73.523,153.516c-.402.839-.611,1.758-.611,2.688v3.423c0,6.805,5.467,12.135,12.447,12.135h30.805c5.298,0,12.967-1.301,18.371-12.561l93.038-194.477c.401-.838.61-1.756.61-2.686v-2.178c0-6.578-5.557-12.135-12.135-12.135ZM862.985,42.807l-93.038,194.477c-3.734,7.779-8.09,9.024-12.758,9.024h-30.805c-3.423,0-6.223-2.489-6.223-5.912v-3.423l77.791-162.427h-72.19c-3.112,0-5.912-2.8-5.912-5.912v-28.005c0-3.112,2.8-5.912,5.912-5.912h131.311c3.112,0,5.912,2.8,5.912,5.912v2.178Z"/>
  <path class="cls-4" d="M105.792,114.063c-24.582-9.957-33.917-18.67-33.917-30.183,0-8.401,8.401-15.869,19.603-15.869,18.981,0,41.696,17.114,44.496,18.67,2.8,2.178,8.401-.622,10.58-4.045l15.869-23.96c1.245-2.178,1.867-7.779-1.867-9.957-9.335-6.846-34.228-23.337-66.589-23.337-47.919,0-71.879,31.116-71.879,61.922,0,37.34,33.606,58.188,60.366,68.767,21.159,8.401,32.05,18.359,32.05,31.428,0,10.891-9.024,18.67-21.47,18.67-20.537,0-42.941-16.492-44.185-17.114-2.178-1.556-8.09-2.178-10.58,1.867l-14.625,25.827c-2.489,4.356-1.556,5.601,1.556,8.713,7.157,7.157,29.561,23.96,70.012,23.96,45.741,0,73.435-32.361,73.435-64.411,0-42.318-38.584-61.299-62.855-70.945Z"/>
  <path class="cls-4" d="M290.814,177.705c-.952-1.111-3.015-1.111-4.126-.159-5.713,4.92-13.807,7.617-21.265,7.617-17.933,0-31.263-14.6-31.263-32.215,0-17.774,13.172-32.692,31.104-32.692,7.776,0,15.552,2.857,21.424,8.094,1.111,1.111,2.856,1.111,3.967,0l12.378-12.854c1.27-1.27,1.27-3.174-.159-4.444-10.792-9.839-22.535-14.759-38.404-14.759-31.74,0-57.29,25.551-57.29,57.29s25.55,56.971,57.29,56.971c14.124,0,27.771-4.919,38.563-15.393,1.111-1.111,1.27-3.174.159-4.285l-12.378-13.172Z"/>
  <path class="cls-4" d="M392.693,96.294c-31.739,0-56.972,25.551-56.972,57.29s25.233,56.971,56.972,56.971,57.131-25.232,57.131-56.971-25.391-57.29-57.131-57.29ZM392.693,185.163c-17.298,0-31.581-14.283-31.581-31.58,0-17.457,14.283-31.899,31.581-31.899,17.457,0,31.739,14.442,31.739,31.899,0,17.298-14.283,31.58-31.739,31.58Z"/>
  <path class="cls-4" d="M538.531,97.881h-47.451c-1.745,0-3.015,1.428-3.015,3.015v105.057c0,1.587,1.27,3.015,3.015,3.015h18.885c1.587,0,3.015-1.428,3.015-3.015v-40.468h10.95l21.107,42.054c.317.635,1.27,1.428,2.539,1.428h21.106c2.698,0,3.809-2.539,2.698-4.602l-21.741-40.309c13.807-5.555,23.487-17.298,23.487-31.898,0-18.885-15.553-34.279-34.596-34.279ZM512.98,120.575h23.487c6.506,0,12.061,5.396,12.061,12.061s-5.554,12.696-12.061,12.696h-23.487v-24.756Z"/>
  <path class="cls-4" d="M682.148,185.64h-43.959v-21.424h36.183c1.587,0,3.015-1.27,3.015-3.015v-17.298c0-1.587-1.428-3.015-3.015-3.015h-36.183v-19.679h43.959c1.745,0,3.015-1.428,3.015-3.015v-17.298c0-1.587-1.27-3.015-3.015-3.015h-65.7c-1.745,0-3.015,1.428-3.015,3.015v105.057c0,1.587,1.27,3.015,3.015,3.015h65.7c1.745,0,3.015-1.428,3.015-3.015v-17.298c0-1.587-1.27-3.015-3.015-3.015Z"/>
  <path class="cls-4" d="M857.073,34.717h-131.311c-3.112,0-5.912,2.8-5.912,5.912v28.005c0,3.112,2.8,5.912,5.912,5.912h72.19l-77.791,162.427v3.423c0,3.423,2.8,5.912,6.223,5.912h30.805c4.667,0,9.024-1.245,12.758-9.024l93.038-194.477v-2.178c0-3.112-2.8-5.912-5.912-5.912Z"/>
</svg>